<svg xmlns="http://www.w3.org/2000/svg" xmlns:xlink="http://www.w3.org/1999/xlink" viewBox="0 0 133.23 42.52"><defs><style>.a7ae6882-8077-4b8b-a573-c7924255f6be{fill:none;}.e647bb20-9e71-404c-b253-a0f596e3598b{clip-path:url(#a52847cf-0dc2-4714-ac00-3bca1df874b1);}.b281aebd-1086-47a8-86c2-019deed233b4{fill:#fff;}</style><clipPath id="a52847cf-0dc2-4714-ac00-3bca1df874b1" transform="translate(0 0)"><rect class="a7ae6882-8077-4b8b-a573-c7924255f6be" width="133.23" height="42.52"/></clipPath></defs><g id="b4cb9db4-a2a4-47b1-982b-a074daa3cd09" data-name="Layer 2"><g id="e448b2d0-7dbd-4d94-bb7a-36a509d228c3" data-name="Laag 1"><g class="e647bb20-9e71-404c-b253-a0f596e3598b"><path class="b281aebd-1086-47a8-86c2-019deed233b4" d="M133.23,42.52H0V8.5A8.51,8.51,0,0,1,8.5,0H133.23Z" transform="translate(0 0)"/><path d="M18,25.37V21.6h7v-3H18V15.71a.61.61,0,0,1,.61-.61h6.85v-3H16.53a2.35,2.35,0,0,0-2.35,2.35v13.9H25.51v-3Z" transform="translate(0 0)"/><path d="M33.54,25.48a2.69,2.69,0,0,1-2.83-2.79,2.58,2.58,0,0,1,2.6-2.87,3.23,3.23,0,0,1,1.9.57l1.51-2.7a6.79,6.79,0,0,0-3.51-.88c-3.36.05-6.08,2.3-6,5.94s3,5.81,6.34,5.75a6.78,6.78,0,0,0,3.61-1.08l-1.71-2.59a3,3,0,0,1-1.9.65" transform="translate(0 0)"/><path d="M50.81,16.73c-3.54,0-5.85,2.33-5.85,6a5.59,5.59,0,0,0,6,5.89A6.11,6.11,0,0,0,56.29,26l-2.56-1.54a2.94,2.94,0,0,1-2.65,1.4,2.43,2.43,0,0,1-2.68-2.17h8.17a11,11,0,0,0-.15-2.61,5.45,5.45,0,0,0-5.61-4.37m-2.35,4.75a2.76,2.76,0,0,1,.22-1,2,2,0,0,1,.51-.67,2.51,2.51,0,0,1,3.21,0,2.14,2.14,0,0,1,.5.68,3.28,3.28,0,0,1,.24,1Z" transform="translate(0 0)"/><path d="M64.75,25.48a2.69,2.69,0,0,1-2.83-2.79,2.59,2.59,0,0,1,2.6-2.87,3.23,3.23,0,0,1,1.9.57l1.52-2.7a6.85,6.85,0,0,0-3.52-.88c-3.36.05-6.07,2.3-6,5.94s3,5.81,6.34,5.75a6.78,6.78,0,0,0,3.61-1.08l-1.71-2.59a3,3,0,0,1-1.9.65" transform="translate(0 0)"/><path d="M73.08,23.74V19.83h3V17h-3V14.6H69.76v9.73c0,3.27,1.82,4.37,5,4.11a9.66,9.66,0,0,0,1.94-.38L76,25.45c-2,.42-2.93-.12-2.93-1.71" transform="translate(0 0)"/><path d="M81.9,24.16V17H78.59v7.88c0,2.87,1.71,4.07,4.91,3.45a9.06,9.06,0,0,0,1-.26l-.73-2.5c-1.3.27-1.9-.17-1.9-1.42" transform="translate(0 0)"/><path d="M91.33,25.48a2.7,2.7,0,0,1-2.83-2.79,2.6,2.6,0,0,1,2.61-2.87,3.17,3.17,0,0,1,1.89.57l1.52-2.7A6.85,6.85,0,0,0,91,16.81c-3.36.05-6.07,2.3-6,5.94s3,5.81,6.34,5.75A6.81,6.81,0,0,0,95,27.42l-1.71-2.59a3,3,0,0,1-1.91.65" transform="translate(0 0)"/><path d="M43.59,25.61c-1.1.17-1.72-.26-1.72-1.45V12.1H38.55V24.89c0,2.87,1.66,4.06,4.91,3.45a9.06,9.06,0,0,0,1-.26l-.72-2.5-.18,0" transform="translate(0 0)"/><path d="M80.33,15.67a1.78,1.78,0,1,0-1.78-1.78,1.78,1.78,0,0,0,1.78,1.78" transform="translate(0 0)"/><rect x="97" y="12.1" width="3.76" height="16.24"/><path d="M112.12,28.35a20,20,0,0,1-2.38-.14,7.88,7.88,0,0,1-6-3.94A8.43,8.43,0,1,1,118.5,24l-3.4-1.83a4.87,4.87,0,0,0,.45-2.06,4.48,4.48,0,1,0-9,0,5,5,0,0,0,.6,2.35,4.56,4.56,0,0,0,2.91,2.27,9.16,9.16,0,0,0,1.82.13h6.51l2,3.53Z" transform="translate(0 0)"/></g></g></g></svg>